Coordinates
version=1
nRows=14
nColumns=24
inDegrees=yes

Units are S.I. units (second, meters, Newtons, ...)
Angles are in degrees.

endheader
time	pelvis_tilt	pelvis_list	pelvis_rotation	pelvis_tx	pelvis_ty	pelvis_tz	hip_flexion_r	hip_adduction_r	hip_rotation_r	knee_angle_r	ankle_angle_r	subtalar_angle_r	mtp_angle_r	hip_flexion_l	hip_adduction_l	hip_rotation_l	knee_angle_l	ankle_angle_l	subtalar_angle_l	mtp_angle_l	lumbar_extension	lumbar_bending	lumbar_rotation
      1.00783333	     -2.33050752	     -0.35903227	      1.08281049	      0.44301904	      0.99475770	      0.31033689	     14.45700036	      4.29654552	      2.56408103	    -23.93280403	     15.69306872	     -9.49544200	     -4.63182962	     15.60686874	     -1.68402919	     -0.67203090	    -70.45066162	     -7.87389268	     -2.69238987	      5.35702228	     -9.88793009	      9.25937958	     -2.62360518
      1.01200000	     -2.27394358	     -0.20952721	      0.88031637	      0.44761442	      0.99579368	      0.31077441	     13.88300845	      4.17886990	      2.71349178	    -23.46888948	     15.73463721	     -9.36750795	     -4.59733941	     16.12614320	     -1.60190811	     -0.90750128	    -70.26708335	     -6.80785869	     -2.39340305	      5.41725165	    -10.00696182	      9.01442729	     -2.19925340
      1.01616667	     -2.22713379	     -0.06038782	      0.67848100	      0.45219960	      0.99678977	      0.31119974	     13.31887514	      4.05589833	      2.85867400	    -22.99849079	     15.77674921	     -9.24177107	     -4.56517092	     16.64872357	     -1.52198312	     -1.14323576	    -70.04096514	     -5.76159688	     -2.10529223	      5.46563237	    -10.11115156	      8.76553975	     -1.81994466
      1.02033333	     -2.18663949	      0.09167945	      0.47458697	      0.45680163	      0.99775509	      0.31161378	     12.76047333	      3.92407944	      2.99551973	    -22.52476504	     15.81519748	     -9.10915411	     -4.53024698	     17.16443197	     -1.44332644	     -1.38591988	    -69.76254358	     -4.74522139	     -1.81935124	      5.50479198	    -10.20480322	      8.51757974	     -1.41589179
      1.02450000	     -2.12283972	      0.24751734	      0.27498976	      0.46139596	      0.99873090	      0.31201223	     12.17526851	      3.78230395	      3.12765223	    -22.04333503	     15.84962200	     -8.96732887	     -4.49505178	     17.64502835	     -1.36272635	     -1.63024304	    -69.43533926	     -3.76775455	     -1.56518816	      5.53266871	    -10.32543163	      8.26795854	     -1.03540026
      1.02866667	     -2.07150309	      0.39688008	      0.07695429	      0.46596893	      0.99965048	      0.31239515	     11.60373812	      3.64289803	      3.26367984	    -21.55685194	     15.87609337	     -8.82216699	     -4.46138226	     18.13407555	     -1.28533435	     -1.86207046	    -69.07258392	     -2.82936250	     -1.33154174	      5.54978969	    -10.44550079	      8.02487785	     -0.67618621
      1.03283333	     -2.01239055	      0.54950479	     -0.12382248	      0.47056893	      1.00055611	      0.31276159	     11.02326485	      3.49286746	      3.38392424	    -21.06761511	     15.90909681	     -8.67511074	     -4.42551093	     18.59853716	     -1.21082819	     -2.10931407	    -68.65626331	     -1.93354962	     -1.10704063	      5.55586017	    -10.55022666	      7.78117703	     -0.29458282
      1.03700000	     -1.94535607	      0.70820230	     -0.32323632	      0.47517381	      1.00145620	      0.31311352	     10.43325798	      3.33049866	      3.49937772	    -20.57284078	     15.93914002	     -8.51549574	     -4.38775349	     19.04018241	     -1.12751467	     -2.35147890	    -68.18731614	     -1.09509226	     -0.92303101	      5.54973931	    -10.65986928	      7.53276081	      0.07942767
      1.04116667	     -1.86670396	      0.85153208	     -0.51882493	      0.47977919	      1.00232062	      0.31345143	      9.83001725	      3.17910250	      3.60259875	    -20.07304503	     15.96405500	     -8.35507406	     -4.34661775	     19.46279509	     -1.06487121	     -2.59441263	    -67.68547312	     -0.30054780	     -0.77173468	      5.52983409	    -10.77947017	      7.30030619	      0.45195675
      1.04533333	     -1.80858902	      1.00606814	     -0.71567988	      0.48437886	      1.00312994	      0.31377437	      9.25614719	      3.01028428	      3.70422391	    -19.58455136	     15.98695731	     -8.18469248	     -4.30303860	     19.89476324	     -0.98477880	     -2.83080995	    -67.13650750	      0.44319761	     -0.65779332	      5.49614656	    -10.87958142	      7.05196655	      0.81144107
      1.04950000	     -1.73798602	      1.15268019	     -0.90532251	      0.48896422	      1.00390964	      0.31406712	      8.66991128	      2.84400238	      3.80045919	    -19.09391826	     16.01536680	     -8.00919832	     -4.26072225	     20.30467697	     -0.90652662	     -3.04967553	    -66.54912680	      1.14509829	     -0.56047265	      5.45497400	    -10.99785172	      6.83146078	      1.14876673
      1.05366667	     -1.65090938	      1.29908409	     -1.09489841	      0.49356540	      1.00468441	      0.31434197	      8.06718469	      2.67147918	      3.88518434	    -18.60435386	     16.03864860	     -7.82571449	     -4.21927639	     20.68163563	     -0.82563689	     -3.26539044	    -65.91411404	      1.79192599	     -0.50986499	      5.40518323	    -11.12538550	      6.61022138	      1.48019305
      1.05783333	     -1.59534496	      1.43463107	     -1.27906385	      0.49815049	      1.00535880	      0.31461562	      7.50251293	      2.50832675	      3.96353432	    -18.11829113	     16.06688234	     -7.63815847	     -4.17462276	     21.08876274	     -0.75748575	     -3.47099236	    -65.25373820	      2.38922402	     -0.48995179	      5.34141160	    -11.22364172	      6.37797571	      1.81942139
      1.06200000	     -1.51257045	      1.57415041	     -1.46032072	      0.50273571	      1.00603768	      0.31485510	      6.91183359	      2.33394949	      4.03112888	    -17.63612581	     16.09480828	     -7.44309641	     -4.12994072	     21.45107904	     -0.67508742	     -3.66278474	    -64.54482313	      2.93397388	     -0.51496539	      5.26808917	    -11.34851734	      6.16061232	      2.13933143
